<svg width="681" height="195" viewBox="0 0 681 195" fill="none" xmlns="http://www.w3.org/2000/svg">
<path fill-rule="evenodd" clip-rule="evenodd" d="M598.136 56H614.17V139H598.136V56Z" fill="#D7182A"/>
<path fill-rule="evenodd" clip-rule="evenodd" d="M661.48 75.5844C658.711 72.2036 655.02 70.4553 649.481 70.4553H637.37V124.547H649.481C655.02 124.547 658.711 122.796 661.48 119.417C664.478 115.685 664.94 109.74 664.94 97.1507C664.94 84.5595 664.478 79.3145 661.48 75.5844ZM672.668 131.073C667.247 136.555 659.517 139 650.981 139H621.334V56H650.981C659.517 56 667.247 58.4469 672.668 63.9272C681.898 73.2534 680.974 84.6772 680.974 97.1507C680.974 109.624 681.898 121.748 672.668 131.073Z" fill="#D7182A"/>
<path fill-rule="evenodd" clip-rule="evenodd" d="M359.903 139H346.523L331.409 88.6408L316.297 139H302.917L281 56H297.725L310.416 108.343L325.412 56H337.409L352.405 108.343L365.21 56H381.935L359.903 139Z" fill="#292728"/>
<path fill-rule="evenodd" clip-rule="evenodd" d="M464.421 139H451.041L435.927 88.6408L420.815 139H407.437L385.517 56H402.243L414.934 108.343L429.929 56H441.927L456.922 108.343L469.727 56H486.455L464.421 139Z" fill="#292728"/>
<path fill-rule="evenodd" clip-rule="evenodd" d="M568.94 139H555.56L540.446 88.6408L525.334 139H511.954L490.037 56H506.762L519.453 108.343L534.448 56H546.446L561.442 108.343L574.247 56H590.972L568.94 139Z" fill="#292728"/>
<path fill-rule="evenodd" clip-rule="evenodd" d="M31.8097 66.2072L0 98.0261L31.8097 129.845L42.4118 119.239L21.2059 98.0261L42.4118 76.813L31.8097 66.2072Z" fill="#292728"/>
<path fill-rule="evenodd" clip-rule="evenodd" d="M201.192 66.2072L190.588 76.813L211.794 98.0261L190.588 119.239L201.192 129.845L233 98.0261L201.192 66.2072Z" fill="#292728"/>
<path fill-rule="evenodd" clip-rule="evenodd" d="M159.329 71.8796C156.181 83.5195 143.966 114.165 143.966 114.165L127.014 67.4992H106.192L89.24 114.165C89.24 114.165 76.69 83.5339 73.4899 71.8796C72.5973 68.6337 71.4113 63.21 71.4113 58.5701C71.4113 34.5387 92.3865 14.9861 116.41 14.9861C140.433 14.9861 161.406 34.5387 161.406 58.5701C161.406 63.21 160.21 68.6301 159.329 71.8796ZM95.9622 134.998L116.41 79.4952L136.859 134.998H95.9622ZM136.857 158.767C136.857 161.818 136.354 164.609 135.353 167.143C134.353 169.675 132.947 171.831 131.138 173.619C129.33 175.404 127.166 176.8 124.645 177.808C122.127 178.815 119.381 179.318 116.408 179.318H116.215C113.179 179.318 110.433 178.815 107.977 177.808C105.521 176.8 103.391 175.404 101.581 173.619C99.7723 171.831 98.3842 169.675 97.4147 167.143C96.4452 164.609 95.9622 161.818 95.9622 158.767V149.999H136.857V158.767ZM116.41 0C84.0722 0 56.4304 26.2216 56.4304 58.5701C56.4304 63.151 56.7738 67.6549 57.9669 71.8796C62.8878 89.2975 82.3282 134.998 82.3282 134.998H82.33V158.767C82.33 164.09 83.2065 168.977 84.9577 173.425C86.7125 177.872 89.113 181.703 92.1647 184.919C95.2145 188.134 98.8171 190.614 102.972 192.37C107.126 194.123 111.605 195 116.408 195H116.605C121.406 195 125.869 194.123 129.992 192.37C134.113 190.614 137.7 188.134 140.751 184.919C143.801 181.703 146.187 177.872 147.908 173.425C149.627 168.977 150.489 164.09 150.489 158.767V134.998C150.489 134.998 169.932 89.2975 174.852 71.8796C176.046 67.6549 176.389 63.151 176.389 58.5701C176.389 26.2216 148.745 0 116.41 0Z" fill="#292728"/>
</svg>
