<?xml version="1.0" standalone="no"?><!DOCTYPE svg PUBLIC "-//W3C//DTD SVG 1.1//EN" "http://www.w3.org/Graphics/SVG/1.1/DTD/svg11.dtd"><svg viewBox="0 0 402 402" preserveAspectRatio="xMidYMid meet" class="css-a32uf1 logo" id="cbdbefcf" version="1.1" xmlns="http://www.w3.org/2000/svg" xmlns:xlink="http://www.w3.org/1999/xlink" style="display:block;height:231px;max-height:70%;max-width:300px;min-height:auto;min-width:auto;pointer-events:none;perspective-origin:150px 115.5px;transform-origin:150px 115.5px;"><defs id="SvgjsDefs1011" style="height:auto;overflow-x:visible;overflow-y:visible;pointer-events:none;width:auto;perspective-origin:0px 0px;transform-origin:0px 0px;"/><g id="SvgjsG1012" featurekey="root" fill="#4194d4" style="height:auto;overflow-x:visible;overflow-y:visible;pointer-events:none;width:auto;perspective-origin:0px 0px;transform-origin:0px 0px;fill:rgb(65, 148, 212);"/><g id="SvgjsG1013" featurekey="container1" fill="#050c96" transform="matrix(7.23,0,0,7.23,20,20)" style="height:auto;overflow-x:visible;overflow-y:visible;pointer-events:none;width:auto;perspective-origin:0px 0px;transform:matrix(7.23, 0, 0, 7.23, 20, 20);transform-origin:0px 0px;fill:rgb(5, 12, 150);"><circle cx="25" cy="25" r="25" style="height:auto;overflow-x:visible;overflow-y:visible;pointer-events:none;width:auto;perspective-origin:0px 0px;transform-origin:0px 0px;fill:rgb(5, 12, 150);cx:25px;cy:25px;r:25px;"/></g><g id="SvgjsG1014" featurekey="symbol1" fill="#4194d4" transform="matrix(1.2967764116339064,0,0,1.2967764116339064,164.98696739625535,119)" style="height:auto;overflow-x:visible;overflow-y:visible;pointer-events:none;width:auto;perspective-origin:0px 0px;transform:matrix(1.29678, 0, 0, 1.29678, 164.987, 119);transform-origin:0px 0px;fill:rgb(65, 148, 212);"><title style="height:auto;overflow-x:visible;overflow-y:visible;pointer-events:none;width:auto;perspective-origin:50% 50%;transform-origin:0px 0px;fill:rgb(65, 148, 212);">024 - Mobile Html</title><desc style="height:auto;overflow-x:visible;overflow-y:visible;pointer-events:none;width:auto;perspective-origin:50% 50%;transform-origin:0px 0px;fill:rgb(65, 148, 212);">Created with Sketch.</desc><g stroke="none" stroke-width="1" fill="none" fill-rule="evenodd" style="height:auto;overflow-x:visible;overflow-y:visible;pointer-events:none;width:auto;perspective-origin:0px 0px;transform-origin:0px 0px;fill:none;fill-rule:evenodd;"><g fill="#4194d4" fill-rule="nonzero" style="height:auto;overflow-x:visible;overflow-y:visible;pointer-events:none;width:auto;perspective-origin:0px 0px;transform-origin:0px 0px;fill:rgb(65, 148, 212);"><path d="M20,44 C20.285337,43.9983107 20.5564426,43.8751468 20.7454204,43.6613537 C20.9343982,43.4475607 21.0233505,43.1633863 20.99,42.88 C20.9594751,42.6167315 20.8265632,42.3760533 20.62,42.21 L3.61,28.78 C3.37013609,28.5922604 3.22998984,28.3045995 3.22998984,28 C3.22998984,27.6954005 3.37013609,27.4077396 3.61,27.22 L20.62,13.79 C20.8265859,13.6239658 20.9595033,13.3832775 20.99,13.12 C21.0219941,12.8567181 20.9502649,12.59132 20.79,12.38 C20.6239658,12.1734141 20.3832775,12.0404967 20.12,12.01 C19.8567206,11.9780401 19.5913351,12.0497659 19.38,12.21 L0.41,27.19 C0.385570297,27.2157537 0.358805787,27.2391873 0.33005,27.26 L0.25005,27.35 C0.24005,27.36 0.23005,27.38 0.21005,27.39 L0.18005,27.45 L0.12005,27.54 L0.06005,27.67 L0.03005,27.81 L0.01005,28.1 C0.0152953902,28.1442949 0.0253548343,28.1878858 0.04005,28.23 C0.04005,28.24 0.08005,28.38 0.08005,28.38 L0.16,28.52 C0.17,28.54 0.2,28.59 0.22,28.63 C0.264642813,28.6820951 0.314953445,28.7290517 0.37,28.77 C0.384083936,28.786275 0.401030334,28.7998321 0.42,28.81 L19.38,43.79 C19.5586172,43.9250205 19.7760963,43.9986827 20,44 Z" style="height:auto;overflow-x:visible;overflow-y:visible;pointer-events:none;width:auto;perspective-origin:0px 0px;transform-origin:0px 0px;fill:rgb(65, 148, 212);d:path('M 20 44 C 20.2853 43.9983 20.5564 43.8751 20.7454 43.6614 C 20.9344 43.4476 21.0233 43.1634 20.99 42.88 C 20.9595 42.6167 20.8266 42.3761 20.62 42.21 L 3.61 28.78 C 3.37014 28.5923 3.22999 28.3046 3.22999 28 C 3.22999 27.6954 3.37014 27.4077 3.61 27.22 L 20.62 13.79 C 20.8266 13.624 20.9595 13.3833 20.99 13.12 C 21.022 12.8567 20.9503 12.5913 20.79 12.38 C 20.624 12.1734 20.3833 12.0405 20.12 12.01 C 19.8567 11.978 19.5913 12.0498 19.38 12.21 L 0.41 27.19 C 0.38557 27.2158 0.358806 27.2392 0.33005 27.26 L 0.25005 27.35 C 0.24005 27.36 0.23005 27.38 0.21005 27.39 L 0.18005 27.45 L 0.12005 27.54 L 0.06005 27.67 L 0.03005 27.81 L 0.01005 28.1 C 0.0152954 28.1443 0.0253548 28.1879 0.04005 28.23 C 0.04005 28.24 0.08005 28.38 0.08005 28.38 L 0.16 28.52 C 0.17 28.54 0.2 28.59 0.22 28.63 C 0.264643 28.6821 0.314953 28.7291 0.37 28.77 C 0.384084 28.7863 0.40103 28.7998 0.42 28.81 L 19.38 43.79 C 19.5586 43.925 19.7761 43.9987 20 44 Z');"/><path d="M45,3 C44.9951725,1.3451495 43.6548505,0.0048275259 42,0 L12,0 C10.3451495,0.0048275259 9.00482753,1.3451495 9,3 L9,6 L45,6 L45,3 Z M28,4 L26,4 C25.4477153,4 25,3.55228475 25,3 C25,2.44771525 25.4477153,2 26,2 L28,2 C28.5522847,2 29,2.44771525 29,3 C29,3.55228475 28.5522847,4 28,4 Z" style="height:auto;overflow-x:visible;overflow-y:visible;pointer-events:none;width:auto;perspective-origin:0px 0px;transform-origin:0px 0px;fill:rgb(65, 148, 212);d:path('M 45 3 C 44.9952 1.34515 43.6549 0.00482753 42 0 L 12 0 C 10.3451 0.00482753 9.00483 1.34515 9 3 L 9 6 L 45 6 L 45 3 Z M 28 4 L 26 4 C 25.4477 4 25 3.55228 25 3 C 25 2.44772 25.4477 2 26 2 L 28 2 C 28.5523 2 29 2.44772 29 3 C 29 3.55228 28.5523 4 28 4 Z');"/><path d="M53.97,27.81 L53.95,27.71 L53.9,27.57 L53.84,27.48 C53.8193478,27.4416945 53.7959535,27.404932 53.77,27.37 L53.77,27.36 L53.65995,27.26 L53.57995,27.18 L34.62,12.21 C34.4431587,12.0716587 34.2245115,11.9976008 34,12 C33.9597402,11.9983499 33.9194314,12.001709 33.88,12.01 C33.6167225,12.0404967 33.3760342,12.1734141 33.21,12.38 C33.0497351,12.59132 32.9780059,12.8567181 33.01,13.12 C33.0404967,13.3832775 33.1734141,13.6239658 33.38,13.79 L50.39,27.22 C50.6298639,27.4077396 50.7700102,27.6954005 50.7700102,28 C50.7700102,28.3045995 50.6298639,28.5922604 50.39,28.78 L33.38,42.21 C33.1734368,42.3760533 33.0405249,42.6167315 33.01,42.88 C32.9714838,43.1644147 33.058608,43.4515154 33.2486911,43.6665588 C33.4387741,43.8816022 33.7130082,44.0033111 34,44 C34.2256348,43.9990958 34.4442607,43.9215189 34.62,43.78 L53.58,28.81 C53.608409,28.7924351 53.6351832,28.7723545 53.66,28.75 L53.78006,28.63 C53.7811168,28.6224192 53.7846295,28.6153939 53.79006,28.61 C53.81006,28.58 53.84006,28.52 53.84006,28.52 L53.90006,28.43 L53.94006,28.33 L53.97006,28.23 L53.99006,28.09 L53.99006,27.96 C53.99,27.95 53.97,27.81 53.97,27.81 Z" style="height:auto;overflow-x:visible;overflow-y:visible;pointer-events:none;width:auto;perspective-origin:0px 0px;transform-origin:0px 0px;fill:rgb(65, 148, 212);d:path('M 53.97 27.81 L 53.95 27.71 L 53.9 27.57 L 53.84 27.48 C 53.8193 27.4417 53.796 27.4049 53.77 27.37 L 53.77 27.36 L 53.66 27.26 L 53.5799 27.18 L 34.62 12.21 C 34.4432 12.0717 34.2245 11.9976 34 12 C 33.9597 11.9984 33.9194 12.0017 33.88 12.01 C 33.6167 12.0405 33.376 12.1734 33.21 12.38 C 33.0497 12.5913 32.978 12.8567 33.01 13.12 C 33.0405 13.3833 33.1734 13.624 33.38 13.79 L 50.39 27.22 C 50.6299 27.4077 50.77 27.6954 50.77 28 C 50.77 28.3046 50.6299 28.5923 50.39 28.78 L 33.38 42.21 C 33.1734 42.3761 33.0405 42.6167 33.01 42.88 C 32.9715 43.1644 33.0586 43.4515 33.2487 43.6666 C 33.4388 43.8816 33.713 44.0033 34 44 C 34.2256 43.9991 34.4443 43.9215 34.62 43.78 L 53.58 28.81 C 53.6084 28.7924 53.6352 28.7724 53.66 28.75 L 53.7801 28.63 C 53.7811 28.6224 53.7846 28.6154 53.7901 28.61 C 53.8101 28.58 53.8401 28.52 53.8401 28.52 L 53.9001 28.43 L 53.9401 28.33 L 53.9701 28.23 L 53.9901 28.09 L 53.9901 27.96 C 53.99 27.95 53.97 27.81 53.97 27.81 Z');"/><path d="M9,53 C9.00484937,54.6548414 10.3451586,55.9951506 12,56 L42,56 C43.6548414,55.9951506 44.9951506,54.6548414 45,53 L45,50 L9,50 L9,53 Z" style="height:auto;overflow-x:visible;overflow-y:visible;pointer-events:none;width:auto;perspective-origin:0px 0px;transform-origin:0px 0px;fill:rgb(65, 148, 212);d:path('M 9 53 C 9.00485 54.6548 10.3452 55.9952 12 56 L 42 56 C 43.6548 55.9952 44.9952 54.6548 45 53 L 45 50 L 9 50 L 9 53 Z');"/><path d="M34,46 C33.1440213,45.997981 32.3294791,45.6312242 31.7605593,44.9916667 C31.1916394,44.3521092 30.922279,43.5003847 31.02,42.65 C31.1062214,41.8588931 31.5105409,41.1368938 32.14,40.65 L45,30.49 L45,25.51 L32.14,15.35 C31.5105293,14.8631162 31.1062068,14.1411116 31.02,13.35 C30.9263,12.5587492 31.1531684,11.7629092 31.65,11.14 C32.1368877,10.5105258 32.8588866,10.1061883 33.65,10.01995 C34.4412478,9.92628741 35.2370736,10.1531518 35.86,10.64995 L45,17.86 L45,8 L9,8 L9,17.86 L18.14,10.65 C18.7629264,10.1532018 19.5587522,9.92633741 20.35,10.02 C21.1411134,10.1062383 21.8631123,10.5105758 22.35,11.14005 C22.8468316,11.7629592 23.0737,12.5587992 22.98,13.35005 C22.8937932,14.1411616 22.4894707,14.8631662 21.86,15.35005 L9,25.51 L9,30.49 L21.86,40.65 C22.4894591,41.1368938 22.8937786,41.8588931 22.98,42.65 C23.1230603,43.8558296 22.5243753,45.028815 21.4639332,45.6203839 C20.4034911,46.2119529 19.0908914,46.10518 18.14,45.35 L9,38.14 L9,48 L45,48 L45,38.14 L35.86,45.35 C35.3306195,45.7694543 34.6754133,45.9984242 34,46 Z" style="height:auto;overflow-x:visible;overflow-y:visible;pointer-events:none;width:auto;perspective-origin:0px 0px;transform-origin:0px 0px;fill:rgb(65, 148, 212);d:path('M 34 46 C 33.144 45.998 32.3295 45.6312 31.7606 44.9917 C 31.1916 44.3521 30.9223 43.5004 31.02 42.65 C 31.1062 41.8589 31.5105 41.1369 32.14 40.65 L 45 30.49 L 45 25.51 L 32.14 15.35 C 31.5105 14.8631 31.1062 14.1411 31.02 13.35 C 30.9263 12.5587 31.1532 11.7629 31.65 11.14 C 32.1369 10.5105 32.8589 10.1062 33.65 10.0199 C 34.4412 9.92629 35.2371 10.1532 35.86 10.65 L 45 17.86 L 45 8 L 9 8 L 9 17.86 L 18.14 10.65 C 18.7629 10.1532 19.5588 9.92634 20.35 10.02 C 21.1411 10.1062 21.8631 10.5106 22.35 11.14 C 22.8468 11.763 23.0737 12.5588 22.98 13.35 C 22.8938 14.1412 22.4895 14.8632 21.86 15.35 L 9 25.51 L 9 30.49 L 21.86 40.65 C 22.4895 41.1369 22.8938 41.8589 22.98 42.65 C 23.1231 43.8558 22.5244 45.0288 21.4639 45.6204 C 20.4035 46.212 19.0909 46.1052 18.14 45.35 L 9 38.14 L 9 48 L 45 48 L 45 38.14 L 35.86 45.35 C 35.3306 45.7695 34.6754 45.9984 34 46 Z');"/></g></g></g><g id="SvgjsG1015" featurekey="text1" fill="#4194d4" transform="matrix(3.8022816629567244,0,0,3.8022816629567244,79.23954325946809,189.75665323867338)" style="height:auto;overflow-x:visible;overflow-y:visible;pointer-events:none;width:auto;perspective-origin:0px 0px;transform:matrix(3.80228, 0, 0, 3.80228, 79.2395, 189.757);transform-origin:0px 0px;fill:rgb(65, 148, 212);"><path d="M7.8 17.96 q-0.4 1.52 -0.85 3.02 t-0.95 3.02 l-2.32 0 q-0.36 -0.84 -0.78 -2 t-0.87 -2.53 t-0.92 -2.9 t-0.91 -3.09 l3.14 0 q0.16 0.72 0.35 1.57 t0.4 1.75 t0.44 1.81 t0.47 1.75 q0.26 -0.88 0.51 -1.8 t0.48 -1.81 t0.44 -1.72 t0.37 -1.55 l2.16 0 q0.16 0.72 0.36 1.55 t0.42 1.72 t0.46 1.81 t0.5 1.8 q0.24 -0.84 0.48 -1.75 t0.45 -1.81 t0.4 -1.75 t0.35 -1.57 l3.1 0 q-0.44 1.56 -0.91 3.09 t-0.92 2.9 t-0.88 2.53 t-0.79 2 l-2.32 0 q-0.5 -1.52 -0.98 -3.02 t-0.88 -3.02 z M23.48 17.96 q-0.4 1.52 -0.85 3.02 t-0.95 3.02 l-2.32 0 q-0.36 -0.84 -0.78 -2 t-0.87 -2.53 t-0.92 -2.9 t-0.91 -3.09 l3.14 0 q0.16 0.72 0.35 1.57 t0.4 1.75 t0.44 1.81 t0.47 1.75 q0.26 -0.88 0.51 -1.8 t0.48 -1.81 t0.44 -1.72 t0.37 -1.55 l2.16 0 q0.16 0.72 0.36 1.55 t0.42 1.72 t0.46 1.81 t0.5 1.8 q0.24 -0.84 0.48 -1.75 t0.45 -1.81 t0.4 -1.75 t0.35 -1.57 l3.1 0 q-0.44 1.56 -0.91 3.09 t-0.92 2.9 t-0.88 2.53 t-0.79 2 l-2.32 0 q-0.5 -1.52 -0.98 -3.02 t-0.88 -3.02 z M39.16 17.96 q-0.4 1.52 -0.85 3.02 t-0.95 3.02 l-2.32 0 q-0.36 -0.84 -0.78 -2 t-0.87 -2.53 t-0.92 -2.9 t-0.91 -3.09 l3.14 0 q0.16 0.72 0.35 1.57 t0.4 1.75 t0.44 1.81 t0.47 1.75 q0.26 -0.88 0.51 -1.8 t0.48 -1.81 t0.44 -1.72 t0.37 -1.55 l2.16 0 q0.16 0.72 0.36 1.55 t0.42 1.72 t0.46 1.81 t0.5 1.8 q0.24 -0.84 0.48 -1.75 t0.45 -1.81 t0.4 -1.75 t0.35 -1.57 l3.1 0 q-0.44 1.56 -0.91 3.09 t-0.92 2.9 t-0.88 2.53 t-0.79 2 l-2.32 0 q-0.5 -1.52 -0.98 -3.02 t-0.88 -3.02 z M51.42 24 l-2.98 0 l0 -10.52 l2.98 0 l0 10.52 z M51.7 10.44 q0 0.82 -0.53 1.29 t-1.25 0.47 t-1.25 -0.47 t-0.53 -1.29 t0.53 -1.29 t1.25 -0.47 t1.25 0.47 t0.53 1.29 z M56.76 18.66 q0 1.38 0.62 2.22 t1.84 0.84 q0.4 0 0.74 -0.03 t0.56 -0.07 l0 -5.42 q-0.28 -0.18 -0.73 -0.3 t-0.91 -0.12 q-2.12 0 -2.12 2.88 z M63.5 23.66 q-0.4 0.12 -0.92 0.23 t-1.09 0.19 t-1.16 0.13 t-1.13 0.05 q-1.3 0 -2.32 -0.38 t-1.72 -1.09 t-1.07 -1.72 t-0.37 -2.27 q0 -1.28 0.32 -2.31 t0.92 -1.75 t1.47 -1.1 t1.99 -0.38 q0.62 0 1.11 0.12 t0.99 0.34 l0 -4.76 l2.98 -0.48 l0 15.18 z" style="height:auto;overflow-x:visible;overflow-y:visible;pointer-events:none;width:auto;perspective-origin:0px 0px;transform-origin:0px 0px;fill:rgb(65, 148, 212);d:path('M 7.8 17.96 q -0.4 1.52 -0.85 3.02 t -0.95 3.02 l -2.32 0 q -0.36 -0.84 -0.78 -2 t -0.87 -2.53 t -0.92 -2.9 t -0.91 -3.09 l 3.14 0 q 0.16 0.72 0.35 1.57 t 0.4 1.75 t 0.44 1.81 t 0.47 1.75 q 0.26 -0.88 0.51 -1.8 t 0.48 -1.81 t 0.44 -1.72 t 0.37 -1.55 l 2.16 0 q 0.16 0.72 0.36 1.55 t 0.42 1.72 t 0.46 1.81 t 0.5 1.8 q 0.24 -0.84 0.48 -1.75 t 0.45 -1.81 t 0.4 -1.75 t 0.35 -1.57 l 3.1 0 q -0.44 1.56 -0.91 3.09 t -0.92 2.9 t -0.88 2.53 t -0.79 2 l -2.32 0 q -0.5 -1.52 -0.98 -3.02 t -0.88 -3.02 Z M 23.48 17.96 q -0.4 1.52 -0.85 3.02 t -0.95 3.02 l -2.32 0 q -0.36 -0.84 -0.78 -2 t -0.87 -2.53 t -0.92 -2.9 t -0.91 -3.09 l 3.14 0 q 0.16 0.72 0.35 1.57 t 0.4 1.75 t 0.44 1.81 t 0.47 1.75 q 0.26 -0.88 0.51 -1.8 t 0.48 -1.81 t 0.44 -1.72 t 0.37 -1.55 l 2.16 0 q 0.16 0.72 0.36 1.55 t 0.42 1.72 t 0.46 1.81 t 0.5 1.8 q 0.24 -0.84 0.48 -1.75 t 0.45 -1.81 t 0.4 -1.75 t 0.35 -1.57 l 3.1 0 q -0.44 1.56 -0.91 3.09 t -0.92 2.9 t -0.88 2.53 t -0.79 2 l -2.32 0 q -0.5 -1.52 -0.98 -3.02 t -0.88 -3.02 Z M 39.16 17.96 q -0.4 1.52 -0.85 3.02 t -0.95 3.02 l -2.32 0 q -0.36 -0.84 -0.78 -2 t -0.87 -2.53 t -0.92 -2.9 t -0.91 -3.09 l 3.14 0 q 0.16 0.72 0.35 1.57 t 0.4 1.75 t 0.44 1.81 t 0.47 1.75 q 0.26 -0.88 0.51 -1.8 t 0.48 -1.81 t 0.44 -1.72 t 0.37 -1.55 l 2.16 0 q 0.16 0.72 0.36 1.55 t 0.42 1.72 t 0.46 1.81 t 0.5 1.8 q 0.24 -0.84 0.48 -1.75 t 0.45 -1.81 t 0.4 -1.75 t 0.35 -1.57 l 3.1 0 q -0.44 1.56 -0.91 3.09 t -0.92 2.9 t -0.88 2.53 t -0.79 2 l -2.32 0 q -0.5 -1.52 -0.98 -3.02 t -0.88 -3.02 Z M 51.42 24 l -2.98 0 l 0 -10.52 l 2.98 0 l 0 10.52 Z M 51.7 10.44 q 0 0.82 -0.53 1.29 t -1.25 0.47 t -1.25 -0.47 t -0.53 -1.29 t 0.53 -1.29 t 1.25 -0.47 t 1.25 0.47 t 0.53 1.29 Z M 56.76 18.66 q 0 1.38 0.62 2.22 t 1.84 0.84 q 0.4 0 0.74 -0.03 t 0.56 -0.07 l 0 -5.42 q -0.28 -0.18 -0.73 -0.3 t -0.91 -0.12 q -2.12 0 -2.12 2.88 Z M 63.5 23.66 q -0.4 0.12 -0.92 0.23 t -1.09 0.19 t -1.16 0.13 t -1.13 0.05 q -1.3 0 -2.32 -0.38 t -1.72 -1.09 t -1.07 -1.72 t -0.37 -2.27 q 0 -1.28 0.32 -2.31 t 0.92 -1.75 t 1.47 -1.1 t 1.99 -0.38 q 0.62 0 1.11 0.12 t 0.99 0.34 l 0 -4.76 l 2.98 -0.48 l 0 15.18 Z');"/></g></svg>