<?xml version="1.0" standalone="no"?>
<!DOCTYPE svg PUBLIC "-//W3C//DTD SVG 20010904//EN"
 "http://www.w3.org/TR/2001/REC-SVG-20010904/DTD/svg10.dtd">
<svg version="1.0" xmlns="http://www.w3.org/2000/svg"
 width="700.000000pt" height="700.000000pt" viewBox="0 0 700.000000 700.000000"
 preserveAspectRatio="xMidYMid meet">
<metadata>
Created by potrace 1.11, written by Peter Selinger 2001-2013
</metadata>
<g transform="translate(0.000000,700.000000) scale(0.100000,-0.100000)"
fill="#000000" stroke="none">
<path d="M3269 6646 c-2 -2 -38 -7 -79 -10 -73 -7 -184 -21 -245 -32 -134 -23
-410 -96 -495 -131 -8 -3 -19 -7 -25 -8 -31 -8 -187 -75 -300 -129 -626 -301
-1145 -816 -1450 -1441 -99 -202 -192 -446 -221 -580 -1 -5 -13 -57 -27 -115
-52 -218 -71 -393 -72 -665 0 -278 6 -363 41 -575 77 -465 290 -955 587 -1348
126 -168 272 -326 436 -472 81 -72 301 -238 377 -285 188 -114 295 -171 462
-244 90 -40 337 -127 383 -136 12 -2 36 -9 53 -14 17 -6 42 -12 56 -15 14 -2
54 -11 90 -19 67 -16 94 -20 215 -38 156 -22 277 -30 455 -31 245 0 477 28
740 91 87 20 367 108 385 121 6 3 33 15 60 25 146 52 454 223 630 349 220 157
496 419 634 601 226 299 375 561 484 855 63 169 113 354 152 555 28 151 46
357 46 550 0 346 -49 656 -155 979 -66 203 -192 484 -257 578 -11 14 -19 29
-19 33 0 4 -14 27 -30 52 -17 24 -30 46 -30 47 0 8 -163 239 -185 262 -5 6
-30 36 -55 65 -202 241 -418 434 -674 604 -328 218 -747 394 -1096 460 -14 3
-47 9 -75 14 -56 11 -103 18 -173 27 -26 2 -58 7 -72 10 -27 7 -545 15 -551
10z"/>
</g>
</svg>
